<svg xmlns="http://www.w3.org/2000/svg" viewBox="0 0 386.35 599.23"><defs><style>.cls-1{fill:rgb(70, 116, 176);}</style></defs><g id="Camada_2" data-name="Camada 2"><g id="Camada_1-2" data-name="Camada 1"><path class="cls-1" d="M386.27,261.23C381.73,157.65,229,201.5,229,201.5V173.33l54.48-6.19L350.37,104l-117.61,8.66,32.17-38.38L203,0,146.08,61.9l43.34,55.72S115.13,120.1,99,133.71s-52,64.38-52,64.38,66.86-19,117.62-19.8v40.86S-23.53,271.21,2.46,377.61c24,98.32,163,68.1,163,68.1s5.36,75.52-39.21,153.52c19.61-2.91,74.29-30.53,90.39-80.06,14.5-42.39,12.52-91.62,12.52-91.62S390.41,355.63,386.27,261.23ZM164.66,383.81s-52,7.42-75.53-23.53S65.61,295.9,65.61,295.9l99.05-34.67Zm149.81-75.53c-6.2,69.33-85.43,75.31-85.43,75.31l.06-132.21S318.18,227.81,314.47,308.28Z"/></g></g></svg>